<!DOCTYPE svg PUBLIC "-//W3C//DTD SVG 1.1//EN" "http://www.w3.org/Graphics/SVG/1.1/DTD/svg11.dtd"><svg class="main-layer" viewBox="0 0 1800 1800" style="width: 100%; height: 100%; position: absolute; left: 0px; top: 0px; overflow: visible;" data-meta="eyJ0ZW1wbGF0ZUtleSI6IjIzYjA2NTU5LTExOGEtNDUxNy1hMzUwLTUyOGY0YzZlYmY0NyIsImRpbWVuc2lvbnMiOnsiaGVpZ2h0IjoxODAwLCJ3aWR0aCI6MTgwMCwidW5pdCI6InB4In0sInByaW50YWJsZURpbWVuc2lvbnMiOm51bGx9" width="1800" height="1800" xmlns="http://www.w3.org/2000/svg" xmlns:xlink="http://www.w3.org/1999/xlink"><defs class="defs-layer"><pattern data-type="image-fill-pattern" x="0" y="0" width="2" height="2" data-is-default-href="false" id="image-0-crop-pattern"><use data-type="image-fill-crop-use" href="#image-fill-crop-image-image-0-crop-pattern" preserveAspectRatio="none" style="display: block;"/></pattern><clipPath data-type="image-fill-crop-clip-path" id="image-fill-crop-clip-path-image-crop-rectangle-0"><use data-type="image-fill-crop-clip-path-use" href="#image-crop-rectangle-0"/></clipPath><clipPath data-type="base-clip-path" id="base-clip-path-0"><path d="M0,899.999939C0,402.762421,402.762421,0,899.999939,0C1397.237427,0,1799.999878,402.762421,1799.999878,899.999939C1799.999878,1397.237427,1397.237427,1799.999878,899.999939,1799.999878C402.762421,1799.999878,0,1397.237427,0,899.999939Z"/></clipPath><clipPath data-type="underlay-clip-path" id="underlay-clip-path-0" style="transform: scale(0.185);"><path d="M0,899.999939C0,402.762421,402.762421,0,899.999939,0C1397.237427,0,1799.999878,402.762421,1799.999878,899.999939C1799.999878,1397.237427,1397.237427,1799.999878,899.999939,1799.999878C402.762421,1799.999878,0,1397.237427,0,899.999939Z"/></clipPath><style xmlns="http://www.w3.org/1999/xhtml"></style></defs><mask class="clip-layer" id="clip-layer-0" data-rotation="0">
<rect fill="#000000" class="mask-rect" display="none"/><circle style="fill: rgb(255, 255, 255); stroke-width: 0.25; stroke-miterlimit: 10; stroke: none;" cx="108" cy="108" r="108" transform="scale(8.333333333333334, 8.333333333333334) rotate(0 0 0) translate(0 0)"/>
</mask><g class="base-layer" data-curr-zoom="0.185" data-mask-stroke-color="#000000" data-mask-stroke-width="0" style="clip-path: url(&quot;#base-clip-path-0&quot;);" mask="url(#clip-layer-0)"><rect x="0" y="0" width="1800" height="1800" data-background-el="true" style="pointer-events: none; opacity: 1;" fill="none"/><g class="g crayon-g" data-bb="0 0 540 540" transform="rotate(0, 900.000042, 1067.567505) translate(-3000.00014, -3558.55835) scale(3.3333333333333335, 3.3333333333333335) translate(270.000013, 320.270251) translate(900.000042, 1067.567505) " data-t="-270 -270 900.000042 1067.567505 3.333333 3.333333 0" data-type="image" data-opacity="1" data-filters="[]"><g class="off-g" transform="translate(-270, -270)"><g style="opacity: 1;"><image width="540" height="540" data-high-res="https://storage.googleapis.com/sm-studio/studio/uploads/9b6cbd7f-c8fe-4058-8a54-74905eaa2718.png" data-sources="{&quot;default&quot;:&quot;https://storage.googleapis.com/sm-studio/studio/uploads/9b6cbd7f-c8fe-4058-8a54-74905eaa2718.png&quot;,&quot;upscale&quot;:&quot;https://storage.googleapis.com/sm-studio/studio/images/d79fda6b-24a3-4eea-ab1f-16278fd5f127.png&quot;,&quot;artwork&quot;:&quot;https://storage.googleapis.com/sm-studio/studio/images/d79fda6b-24a3-4eea-ab1f-16278fd5f127.png&quot;}" data-s="3.3333333333333335" id="image-0" style="display: block;" xmlns:xlink="http://www.w3.org/1999/xlink" data-cached-url="null" href="https://storage.googleapis.com/sm-studio/studio/images/d79fda6b-24a3-4eea-ab1f-16278fd5f127.png" xlink:href="https://storage.googleapis.com/sm-studio/studio/images/d79fda6b-24a3-4eea-ab1f-16278fd5f127.png"/><rect width="540" height="540" id="image-crop-rectangle-0" style="fill: url(&quot;#image-0-crop-pattern&quot;); display: none;" data-ignore-colors="fill" data-type="image-crop-helper" data-parent="0"/></g><g data-type="image-fill-crop-group" data-parent="image-0-crop-pattern" id="image-fill-crop-group-image-0-crop-pattern" clip-path="url(#image-fill-crop-clip-path-image-crop-rectangle-0)" style="display: block; opacity: 1;"><image data-type="image-fill-crop-image" id="image-fill-crop-image-image-0-crop-pattern" preserveAspectRatio="none" class="crayon-ignore" href="https://storage.googleapis.com/sm-studio/studio/images/d79fda6b-24a3-4eea-ab1f-16278fd5f127.png" style="pointer-events: none;" width="540" height="540"/></g></g></g></g><g mask="url(#clip-layer-0)"><circle style="fill: none; stroke-width: 0; stroke-miterlimit: 10; display: none;" cx="108" cy="108" r="108" transform="scale(8.333333333333334, 8.333333333333334) rotate(0 0 0) translate(0 0)" class="editable-mask-border"/><path style="fill: none; stroke-width: 0; stroke-miterlimit: 10; display: block;" cx="108" cy="108" r="108" class="editable-mask-border flat-editable-mask" d="M0,899.999939C0,402.762421,402.762421,0,899.999939,0C1397.237427,0,1799.999878,402.762421,1799.999878,899.999939C1799.999878,1397.237427,1397.237427,1799.999878,899.999939,1799.999878C402.762421,1799.999878,0,1397.237427,0,899.999939Z"/></g></svg>